HIERARCHY
ROOT SpineBase
{
  OFFSET 0.000000 0.000000 0.000000
  CHANNELS 6 Xposition Yposition Zposition Zrotation Xrotation Yrotation
  JOINT SpineMid
  {
    OFFSET 0.000000 30.704014 0.000000
    CHANNELS 3 Zrotation Xrotation Yrotation
    JOINT SpineShoulder
    {
      OFFSET 0.567115 22.729120 -0.926842
      CHANNELS 3 Zrotation Xrotation Yrotation
      JOINT Neck
      {
        OFFSET 0.222843 7.558944 -0.621165
        CHANNELS 3 Zrotation Xrotation Yrotation
        JOINT Head
        {
          OFFSET 2.550669 9.004364 5.688209
          CHANNELS 3 Zrotation Xrotation Yrotation
          End Site
          {
            OFFSET 0 0 0
          }
        }
      }
      JOINT ShoulderLeft
      {
        OFFSET -2.434400 -4.032173 -9.534538
        CHANNELS 3 Zrotation Xrotation Yrotation
        JOINT ElbowLeft
        {
          OFFSET -1.666004 -23.471631 -7.305425
          CHANNELS 3 Zrotation Xrotation Yrotation
          JOINT WristLeft
          {
            OFFSET 4.430791 -22.384290 -1.295217
            CHANNELS 3 Zrotation Xrotation Yrotation
            JOINT HandLeft
            {
              OFFSET 0.055030 -6.224683 2.925800
              CHANNELS 3 Zrotation Xrotation Yrotation
              JOINT HandTipLeft
              {
                OFFSET 2.067504 -7.744954 1.914990
                CHANNELS 3 Zrotation Xrotation Yrotation
                End Site
                {
                  OFFSET 0 0 0
                }
              }
              JOINT ThumbLeft
              {
                OFFSET 6.577435 2.648452 4.583452
                CHANNELS 3 Zrotation Xrotation Yrotation
                End Site
                {
                  OFFSET 0 0 0
                }
              }
            }
          }
        }
      }
      JOINT ShoulderRight
      {
        OFFSET 14.366297 -10.047960 5.696037
        CHANNELS 3 Zrotation Xrotation Yrotation
        JOINT ElbowRight
        {
          OFFSET 1.124285 -24.011965 -4.710741
          CHANNELS 3 Zrotation Xrotation Yrotation
          JOINT WristRight
          {
            OFFSET -8.937858 6.311285 13.271119
            CHANNELS 3 Zrotation Xrotation Yrotation
            JOINT HandRight
            {
              OFFSET -2.929934 2.007032 4.800036
              CHANNELS 3 Zrotation Xrotation Yrotation
              JOINT HandTipRight
              {
                OFFSET -0.782088 0.186026 1.120144
                CHANNELS 3 Zrotation Xrotation Yrotation
                End Site
                {
                  OFFSET 0 0 0
                }
              }
              JOINT ThumbRight
              {
                OFFSET -0.318424 0.462065 -2.358410
                CHANNELS 3 Zrotation Xrotation Yrotation
                End Site
                {
                  OFFSET 0 0 0
                }
              }
            }
          }
        }
      }
    }
  }
  JOINT HipLeft
  {
    OFFSET -4.668499 2.319416 -7.734471
    CHANNELS 3 Zrotation Xrotation Yrotation
    JOINT KneeLeft
    {
      OFFSET 3.137266 -31.558177 1.736688
      CHANNELS 3 Zrotation Xrotation Yrotation
      JOINT AnkleLeft
      {
        OFFSET -9.136845 -34.697280 -2.618830
        CHANNELS 3 Zrotation Xrotation Yrotation
        JOINT FootLeft
        {
          OFFSET 5.718029 -3.283197 -10.001738
          CHANNELS 3 Zrotation Xrotation Yrotation
          End Site
          {
            OFFSET 0 0 0
          }
        }
      }
    }
  }
  JOINT HipRight
  {
    OFFSET 4.264045 -0.220531 0.486111
    CHANNELS 3 Zrotation Xrotation Yrotation
    JOINT KneeRight
    {
      OFFSET -12.612249 -33.905889 1.756889
      CHANNELS 3 Zrotation Xrotation Yrotation
      JOINT AnkleRight
      {
        OFFSET -9.797508 -28.369559 8.086651
        CHANNELS 3 Zrotation Xrotation Yrotation
        JOINT FootRight
        {
          OFFSET 3.999071 -6.080867 -11.516928
          CHANNELS 3 Zrotation Xrotation Yrotation
          End Site
          {
            OFFSET 0 0 0
          }
        }
      }
    }
  }
}
MOTION
Frames: 14
Frame Time: 0.033333
27.480560 70.559674 338.733589 -0.000000 0.000000 -42.623231 0.000000 0.000000 42.623231 -0.000000 0.000000 0.000000 -0.000000 0.000000 0.000000 0.000000 0.000000 0.000000 -0.000000 0.000000 0.000000 -0.000000 0.000000 0.000000 -0.000000 0.000000 0.000000 -0.000000 0.000000 0.000000 0.000000 0.000000 0.000000 0.000000 0.000000 0.000000 -0.000000 0.000000 0.000000 -0.000000 0.000000 0.000000 -0.000000 0.000000 0.000000 -0.000000 0.000000 0.000000 0.000000 0.000000 0.000000 0.000000 0.000000 0.000000 0.000000 0.000000 42.623231 -0.000000 0.000000 0.000000 -0.000000 0.000000 0.000000 0.000000 0.000000 0.000000 0.000000 0.000000 42.623231 -0.000000 0.000000 0.000000 -0.000000 0.000000 0.000000 0.000000 0.000000 0.000000
27.560882 70.482526 338.697824 -0.194504 0.052481 -41.664302 0.180192 0.090094 41.664249 -0.000000 0.000000 0.000000 -0.000000 0.000000 0.000000 0.000000 0.000000 0.000000 0.475706 -0.816236 -0.086955 0.308533 0.187832 -0.082844 0.118285 2.964085 0.598790 -0.096912 -4.378699 -0.757444 0.000000 0.000000 0.000000 0.000000 0.000000 0.000000 -0.872733 1.336354 0.243500 1.524551 -0.716187 -0.692067 -0.066084 -0.000147 -0.002982 -0.583428 -0.631531 0.480083 0.000000 0.000000 0.000000 0.000000 0.000000 0.000000 0.180192 0.090094 41.664249 -0.000000 0.000000 0.000000 -0.000000 0.000000 0.000000 0.000000 0.000000 0.000000 0.180192 0.090094 41.664249 -0.000000 0.000000 0.000000 0.441560 2.567556 0.806353 0.000000 0.000000 0.000000
27.576597 70.420682 338.652033 -0.393497 0.134378 -40.637973 0.386118 0.154305 40.637915 0.935639 0.707019 0.050310 -0.936330 -0.706103 -0.061853 0.000000 0.000000 0.000000 -0.034359 -2.180999 -0.216378 0.670568 0.266751 -0.164834 -0.008928 5.725870 1.055627 -0.287475 -8.237757 -1.354204 0.000000 0.000000 0.000000 0.000000 0.000000 0.000000 -2.520778 1.762426 0.378144 2.685208 -1.472299 -1.221140 -0.111911 0.000860 -0.004130 -0.981182 -1.030705 0.862455 0.000000 0.000000 0.000000 0.000000 0.000000 0.000000 -0.546291 -0.472404 40.586966 1.115818 -0.130720 0.049633 -0.000000 0.000000 0.000000 0.000000 0.000000 0.000000 0.386118 0.154305 40.637915 0.842004 0.836701 -0.055351 -0.100791 3.767273 1.524697 0.000000 0.000000 0.000000
27.527704 70.374140 338.596215 -0.597253 0.245672 -39.542345 0.685744 1.207015 39.551848 0.503078 0.223915 0.061330 -1.204347 -0.962325 -0.080635 0.000000 0.000000 0.000000 0.077468 -2.938342 -0.297867 1.088185 0.235267 -0.243748 -0.389979 8.261839 1.388507 -0.520951 -11.569589 -1.821423 0.000000 0.000000 0.000000 0.000000 0.000000 0.000000 -3.340954 2.433573 0.523036 3.478544 -2.260435 -1.608140 -0.137421 0.003500 -0.003097 -1.197021 -1.195284 1.151703 0.000000 0.000000 0.000000 0.000000 0.000000 0.000000 -0.614715 -0.523984 39.484787 1.405105 -0.231585 0.057070 -0.000000 0.000000 0.000000 0.000000 0.000000 0.000000 0.616979 0.190793 39.542599 1.181023 1.201766 -0.091375 -0.263476 4.898086 2.088091 0.000000 0.000000 0.000000
27.414204 70.342901 338.530371 -0.806060 0.386432 -38.376004 0.873133 1.320550 38.383733 0.639383 0.276811 0.071070 -1.339359 -1.154565 -0.089421 0.000000 0.000000 0.000000 0.276765 -3.475019 -0.365458 1.563510 0.091945 -0.316791 -1.034530 10.552878 1.613782 -0.759104 -14.368669 -2.178011 0.000000 0.000000 0.000000 0.000000 0.000000 0.000000 -3.867167 2.966167 0.636549 3.903278 -3.076183 -1.870855 -0.142659 0.007977 0.000295 -1.233577 -1.123969 1.350220 0.000000 0.000000 0.000000 0.000000 0.000000 0.000000 -0.542114 -0.466845 38.325616 2.265513 0.112518 -0.124991 -0.743313 -0.469810 0.176525 0.000000 0.000000 0.000000 0.871810 0.197489 38.377220 1.470180 1.535775 -0.132119 -0.487511 5.517229 2.525909 0.000000 0.000000 0.000000
27.236096 70.326964 338.454500 -1.020220 0.556807 -37.138119 1.028121 1.292522 37.142431 0.759871 0.318595 0.075463 -1.341543 -1.283104 -0.087332 0.000000 0.000000 0.000000 0.564299 -3.791484 -0.421726 2.098823 -0.164722 -0.380543 -1.953618 12.583371 1.745521 -0.974213 -16.628357 -2.433752 0.000000 0.000000 0.000000 0.000000 0.000000 0.000000 -4.099504 3.361753 0.717561 3.959443 -3.917705 -2.023461 -0.127738 0.014238 0.006045 -1.092240 -0.816136 1.458119 0.000000 0.000000 0.000000 0.000000 0.000000 0.000000 -0.324470 -0.312712 37.108775 2.360423 0.018735 -0.163889 -0.890968 -0.523888 0.200790 0.000000 0.000000 0.000000 2.135707 -0.301682 37.530848 1.232023 2.806035 -0.590814 -0.765772 5.622372 2.840540 0.000000 0.000000 0.000000
26.980281 70.474554 338.509836 -1.198587 0.615509 -35.335974 1.020471 1.050534 35.331416 0.862016 0.449168 0.066002 -1.105118 -1.330052 -0.064353 0.000000 0.000000 0.000000 1.073967 -3.845140 -0.469536 2.870068 -0.774865 -0.466269 -4.396603 15.083468 1.534076 -1.259362 -17.355349 -2.218618 0.000000 0.000000 0.000000 0.000000 0.000000 0.000000 -3.974547 3.690873 0.788154 3.225743 -5.464873 -2.087124 -0.049874 0.028045 0.020688 -0.378436 0.366077 1.436569 0.000000 0.000000 0.000000 0.000000 0.000000 0.000000 -0.247794 0.205413 35.367258 2.412694 -0.338514 -0.239600 -1.128549 -0.593154 0.235019 0.000000 0.000000 0.000000 2.581074 -0.459696 35.842980 1.461736 3.502810 -0.774332 -1.758692 3.677324 3.156443 0.000000 0.000000 0.000000
26.602902 70.438679 338.411360 -1.522980 0.857474 -34.393996 1.152925 0.770452 34.381240 0.957753 0.448092 0.059944 -0.822549 -1.288920 -0.038804 0.000000 0.000000 0.000000 1.471125 -3.551725 -0.498832 3.728509 -1.477658 -0.525041 -5.448905 17.146873 1.749676 -3.787091 -19.607620 -3.736850 0.000000 0.000000 0.000000 0.000000 0.000000 0.000000 -3.543656 3.924641 0.796544 0.838154 -8.634688 -2.100273 0.154177 0.049975 0.050010 1.539680 3.396756 1.129657 0.000000 0.000000 0.000000 0.000000 0.000000 0.000000 0.304989 0.540868 34.471200 2.222279 -0.522733 -0.288065 -1.254512 -0.616172 0.249584 0.000000 0.000000 0.000000 3.666847 -0.917706 35.202146 1.403141 4.595412 -1.161209 -1.869612 3.897621 3.291001 0.000000 0.000000 0.000000
25.884598 70.298084 338.182737 -2.354448 1.234042 -34.182651 1.603244 0.633259 34.160715 1.068660 0.363803 0.052181 -0.396879 -1.219639 -0.000880 0.000000 0.000000 0.000000 1.988620 -3.232934 -0.510955 4.306850 -1.869805 -0.516863 -6.761950 17.980021 1.681529 -3.745623 -20.946552 -3.919995 0.000000 0.000000 0.000000 0.000000 0.000000 0.000000 -2.870389 3.810218 0.770570 0.731424 -8.203139 -1.938997 0.144041 0.050050 0.050093 1.430462 3.144126 1.043011 0.000000 0.000000 0.000000 0.000000 0.000000 0.000000 2.107919 1.210674 34.316414 1.229151 -0.482944 -0.340404 -1.297412 -0.575391 0.242302 0.000000 0.000000 0.000000 5.963779 -1.054007 35.444444 0.524357 5.958545 -1.720307 -1.360696 5.363742 3.359379 0.000000 0.000000 0.000000
25.158259 70.249192 337.900388 -3.115948 1.656172 -34.243258 1.933725 0.514441 34.214022 1.240701 0.259782 0.049750 0.092286 -2.117942 0.219302 0.000000 0.000000 0.000000 2.467643 -2.915177 -0.530737 5.085850 -2.108060 -0.460695 -9.315611 17.626737 1.234031 -0.636843 -20.452007 -2.132293 0.000000 0.000000 0.000000 0.000000 0.000000 0.000000 -1.941501 3.371174 0.661576 1.030610 -6.531333 -1.587295 0.071399 0.039419 0.037232 0.725175 1.871397 0.940521 0.000000 0.000000 0.000000 0.000000 0.000000 0.000000 4.120153 1.763825 34.414395 0.118797 -0.113850 -0.432909 -0.268201 1.316644 0.279117 0.000000 0.000000 0.000000 8.230747 -1.132102 35.935461 -0.432523 6.950835 -2.127234 -0.977758 6.300564 3.159045 0.000000 0.000000 0.000000
24.585103 70.236229 337.618741 -3.724242 2.018325 -34.132997 2.126497 0.441891 34.099183 1.348256 0.125680 0.045107 0.568084 -2.265704 0.224990 0.000000 0.000000 0.000000 3.171209 -2.661172 -0.608862 5.269755 -2.514627 -0.336661 -10.783403 17.127529 1.005074 2.033784 -17.023521 0.067323 0.000000 0.000000 0.000000 0.000000 0.000000 0.000000 -1.252904 2.856580 0.604221 1.839875 -4.458598 -1.364683 -0.030241 0.024081 0.019924 -0.234110 0.243089 0.913339 0.000000 0.000000 0.000000 0.000000 0.000000 0.000000 5.849600 2.172186 34.327071 -1.054077 -0.093350 -0.396275 -1.747549 -1.060641 0.557555 0.000000 0.000000 0.000000 10.026036 -0.874483 36.053207 -1.784797 6.738307 -2.123213 -0.609597 6.197400 2.572780 0.000000 0.000000 0.000000
24.271808 70.257771 337.338100 -4.014283 2.271709 -34.319227 2.077645 0.431522 34.281135 1.432584 -0.072091 0.046011 0.918563 -2.171015 0.147773 0.000000 0.000000 0.000000 3.793477 -2.453448 -0.707634 5.902453 -2.988836 -0.235342 -13.306322 16.080196 0.654406 9.539785 -14.601436 3.953749 0.000000 0.000000 0.000000 0.000000 0.000000 0.000000 -0.544765 2.031782 0.491982 4.239728 0.424129 -1.175928 -0.302926 -0.032687 -0.035421 -2.715268 -3.876364 0.839091 0.000000 0.000000 0.000000 0.000000 0.000000 0.000000 6.806764 2.038251 34.498754 -1.601798 -0.011563 -0.276465 -1.619605 -0.651631 0.580212 0.000000 0.000000 0.000000 11.058893 -0.841789 36.413040 -2.855937 6.607294 -2.169808 -0.266086 6.264281 2.620383 0.000000 0.000000 0.000000
24.495391 70.288897 337.115472 -3.675926 2.429078 -34.993101 1.785294 0.371290 34.953451 1.339877 -0.245638 0.045359 0.662321 -1.459112 0.105787 0.000000 0.000000 0.000000 4.314385 -2.298571 -0.854732 6.992685 -3.701959 -0.143971 -14.735094 14.406974 0.923129 15.217884 -10.949415 6.353811 0.000000 0.000000 0.000000 0.000000 0.000000 0.000000 -0.198588 1.303840 0.400739 5.770751 3.704364 -1.250545 -0.484121 -0.079327 -0.076613 -4.318494 -6.492500 0.741187 0.000000 0.000000 0.000000 0.000000 0.000000 0.000000 6.371848 1.136596 35.135586 -1.192718 0.076358 -0.104673 -4.653835 -5.698721 0.831014 0.000000 0.000000 0.000000 10.787117 -1.185752 37.147125 -2.874203 6.245246 -2.067041 -0.612335 4.899344 2.461174 0.000000 0.000000 0.000000
24.964030 70.259356 336.778241 -3.115621 2.651963 -34.514592 1.499172 0.310069 34.478289 1.075221 -0.446464 0.038462 0.631625 -1.607683 0.108059 0.000000 0.000000 0.000000 5.100895 -2.310672 -1.084674 8.570330 -5.006193 -0.025492 -18.686368 13.607094 1.058414 20.959107 -7.119430 8.560652 0.000000 0.000000 0.000000 0.000000 0.000000 0.000000 -0.159611 0.703932 0.363606 6.566791 5.345669 -1.392250 -0.569647 -0.100842 -0.094851 -5.066082 -7.682015 0.712823 0.000000 0.000000 0.000000 0.000000 0.000000 0.000000 5.554329 -0.371735 34.600265 -0.378287 0.324888 0.072960 -7.678536 -10.702376 0.924171 0.000000 0.000000 0.000000 10.332495 -2.390946 36.917672 -2.399877 6.406651 -2.123683 -0.509788 5.804119 2.531853 0.000000 0.000000 0.000000
